<?xml version="1.0"?>
<svg xmlns="http://www.w3.org/2000/svg" height="510" width="450" xmlns:xlink="http://www.w3.org/1999/xlink">
    <rect opacity=".7" height="510" width="450" fill="#0b0" ry="6"/>
    <g stroke="#fff" stroke-width="2" fill="none">
        <!-- path d="m11.22 22.62v638.8h429.6v-638.8z"/-->
        <rect x="10" y="22" rx="2" ry="2" width="432" height="466"/>
        <path d="m11.26 255h429.4"/>
        <circle cy="255" cx="226" r="54.8"/>
        <circle cy="255" cx="226" r="2"/>
        <g id="a">
            <path d="m9.9 30.07c4.85 0 8.82-4 8.82-8.9m162.5 100.8a54.91 54.91 0 0 0 89.6 0m76.3-99.63v99.63h-242.2l.2-99.63m98.6.20v-15.6l44.6.003v15.6m-77.9-.20v34.4h111.2v-34.4m160.5 7.7c-4.9 0-8.8-4-8.8-8.9"/>
            <circle cy="90" cx="226" r="1"/>
        </g>
        <use xlink:href="#a" transform="scale(1,-1)" y="-510"/>
    </g>
</svg>
