<?xml version="1.0" ?><!DOCTYPE svg  PUBLIC '-//W3C//DTD SVG 1.1//EN'  'http://www.w3.org/Graphics/SVG/1.1/DTD/svg11.dtd'><svg enable-background="new 0 0 32 32" height="32px" version="1.1" viewBox="0 0 32 32" width="32px" xml:space="preserve" xmlns="http://www.w3.org/2000/svg" xmlns:xlink="http://www.w3.org/1999/xlink"><g id="ball"/><g id="wistle"/><g id="pitch"/><g id="goal"/><g id="socks"/><g id="shoe"/><g id="jersey"/><g id="bottle"/><g id="shorts"/><g id="corner"/><g id="winner"/><g id="trophy"/><g id="substitution"/><g id="medal_award"/><g id="strategy"/><g id="card"/><g id="gloves"/><g id="stadium"/><g id="keeper"/><g id="time"/><g id="horns"/><g id="flag"/><g id="referee"/><g id="player"/><g id="injury"/><g id="supporter"/><g id="coach"/><g id="cone"/><g id="captain"/><g id="match"/><g id="score"/><g id="celender"/><g id="grass"/><g id="game"/><g id="subsitutions"/><g id="bench"><path d="M31.02,20c0-0.425-0.265-0.788-0.639-0.933c-1.566-0.885-3.378-2.259-3.381-3.878c-0.003-1.938,2.516-3.772,3.487-4.315   c0.054-0.03,0.094-0.074,0.141-0.113c0.031-0.026,0.066-0.046,0.095-0.076c0.08-0.085,0.146-0.18,0.192-0.286   c0.007-0.015,0.009-0.033,0.015-0.048c0.037-0.1,0.059-0.205,0.063-0.313C30.993,10.024,31,10.013,31,10V2   c0-0.404-0.243-0.769-0.617-0.924s-0.803-0.069-1.09,0.217l-4,4c-0.286,0.286-0.372,0.716-0.217,1.09C25.23,6.756,25.596,7,26,7h2   c0.553,0,1-0.448,1-1c0-0.429-0.27-0.794-0.649-0.937L29,4.414V6v3H17V6V4.414l0.649,0.649C17.27,5.206,17,5.571,17,6   c0,0.552,0.447,1,1,1h2c0.404,0,0.77-0.244,0.924-0.617c0.155-0.374,0.069-0.804-0.217-1.09l-4-4   c-0.286-0.286-0.715-0.371-1.09-0.217C15.243,1.231,15,1.596,15,2v7H3V6V4.414l0.649,0.649C3.27,5.206,3,5.571,3,6   c0,0.552,0.447,1,1,1h2c0.404,0,0.77-0.244,0.924-0.617c0.155-0.374,0.069-0.804-0.217-1.09l-4-4   c-0.286-0.286-0.716-0.371-1.09-0.217C1.243,1.231,1,1.596,1,2v8c0,0.013,0.007,0.023,0.007,0.036   c0.005,0.112,0.025,0.22,0.065,0.323c0.004,0.011,0.004,0.023,0.009,0.034c0.046,0.108,0.114,0.206,0.197,0.292   c0.028,0.03,0.063,0.051,0.097,0.077c0.046,0.038,0.086,0.082,0.14,0.112C2.483,11.413,5,13.237,5,15.185   c0,1.657-1.896,3.057-3.485,3.941c-0.054,0.03-0.094,0.074-0.14,0.112c-0.033,0.026-0.068,0.047-0.097,0.077   c-0.083,0.086-0.151,0.184-0.197,0.292c-0.005,0.011-0.005,0.023-0.009,0.034c-0.04,0.103-0.061,0.211-0.065,0.323   C1.007,19.977,1,19.987,1,20v6c0,0.552,0.447,1,1,1h28c0.553,0,1-0.448,1-1v-5.903C31.003,20.063,31.02,20.034,31.02,20z M4.938,11   h22.125C26.002,12.054,25,13.496,25,15.185c0,1.358,0.628,2.634,1.874,3.815H5.126C6.372,17.819,7,16.543,7,15.185   C7,13.496,5.998,12.054,4.938,11z M22,25v-1c0-0.552-0.447-1-1-1H11c-0.553,0-1,0.448-1,1v1H3v-4h26v4H22z"/><path d="M11,17h10c0.553,0,1-0.448,1-1v-2c0-0.552-0.447-1-1-1H11c-0.553,0-1,0.448-1,1v2C10,16.552,10.447,17,11,17z"/><path d="M30,29h-8c-0.553,0-1,0.448-1,1s0.447,1,1,1h8c0.553,0,1-0.448,1-1S30.553,29,30,29z"/><path d="M19,29h-2c-0.553,0-1,0.448-1,1s0.447,1,1,1h2c0.553,0,1-0.448,1-1S19.553,29,19,29z"/><path d="M14,29H2c-0.553,0-1,0.448-1,1s0.447,1,1,1h12c0.553,0,1-0.448,1-1S14.553,29,14,29z"/></g></svg>